<svg xmlns="http://www.w3.org/2000/svg" xmlns:xlink="http://www.w3.org/1999/xlink"><symbol id="icon_arrow" viewBox="0 0 8 4"><path transform="translate(-985 -68)" id="cvjua" d="M985 68.54l4 2.94 4-2.94"/><use fill-opacity="0" stroke-miterlimit="50" xlink:href="#cvjua"/></symbol><symbol id="icon_arrow_big" viewBox="0 0 32 14"><path transform="translate(-952 -335)" id="ljsoa" d="M952 336l16 12 16-12"/><use fill-opacity="0" stroke-miterlimit="50" xlink:href="#ljsoa"/></symbol><symbol id="icon_logo" viewBox="0 0 156 26"><path transform="translate(-171 -57)" id="5295a" d="M171 60.72l.98 1.95h5.55l1.47-1.95z"/><path transform="translate(-171 -57)" id="5295b" d="M181.5 80.28a7.52 7.52 0 0 0 7.5-7.24 9.36 9.36 0 0 0-4.23-7.43l-1.38 1.52c2.4 1 3.8 3.11 3.8 5.88a5.79 5.79 0 0 1-11.6.23l-1.59-.86v.43a7.5 7.5 0 0 0 7.5 7.47z"/><path transform="translate(-171 -57)" id="5295c" d="M185.76 73.1c0-2.43-1.37-4.13-3.75-4.72l-1.1-.26 7.09-7.57-1.01-1.79L177 69.5h2.92a3.97 3.97 0 0 1 4.04 3.93 3.93 3.93 0 0 1-3.32 3.86 4.3 4.3 0 0 0 5.12-4.19z"/><path transform="translate(-171 -57)" id="5295d" d="M172.82 72.88v-.42l-1.82.97c0 4.84 4.1 8.8 9.12 8.8 1.8 0 3.47-.5 4.88-1.38-1.03.4-2.12.62-3.28.62-4.9 0-8.9-3.86-8.9-8.6z"/><path transform="translate(-171 -57)" id="5295e" d="M171.98 57.78l-.98 1.55h11.21l-7.2 7.5.66 1.71L186 57.78z"/><path transform="translate(-171 -57)" id="5295f" d="M207 73.15a5.39 5.39 0 0 0-5.15-5.25l-1.01 1.32c.14-.02.25-.02.4-.02 2.3 0 4.14 1.75 4.14 3.95a5.53 5.53 0 0 1-5.65 5.38 5.53 5.53 0 0 1-5.65-5.38c0-2.86 2.67-6.1 2.67-6.1l7.04-9.27h-2.17l-7.36 9.62S192 70.08 192 73.15v.37c.2 3.76 3.48 6.76 7.5 6.76 4.13 0 7.5-3.2 7.5-7.13z"/><path transform="translate(-171 -57)" id="5295g" d="M195 73.26a4.1 4.1 0 0 0 5.13 3.96 3.97 3.97 0 0 1-3.57-3.96c0-2 5.33-8.62 5.33-8.62l5.11-6.86h-2.33l-7.38 10.15s-2.29 2.9-2.29 5.33z"/><path transform="translate(-171 -57)" id="5295h" d="M203.62 64.63l-1.36 1.8a6.86 6.86 0 0 1 5.64 6.7 8.9 8.9 0 0 1-8.97 8.77c-.32 0-.63-.03-.93-.05.86.25 1.75.39 2.68.39 5.13 0 9.32-4.1 9.32-9.11 0-4.03-2.66-7.25-6.38-8.5z"/><path transform="translate(-171 -57)" id="5295i" d="M223.57 59.34c5.34 0 9.68 4.12 9.68 9.2 0 5.08-4.34 9.21-9.68 9.21-3.97 0-6.53-3.33-6.53-7.76 0-1.7.37-3.22 1.05-4.46a7.74 7.74 0 0 0-2.8 5.9c0 4.35 3.7 7.87 8.28 7.87 6.3 0 11.43-4.88 11.43-10.87 0-.53-.05-1.06-.12-1.57a11.42 11.42 0 0 0-11.31-9.08c-4.85 0-8.75 2.75-10.57 6.84a13.05 13.05 0 0 1 10.57-5.28z"/><path transform="translate(-171 -57)" id="5295j" d="M223.43 80.69c-5.34 0-9.68-4.13-9.68-9.21 0-5.08 4.34-9.2 9.68-9.2 3.97 0 6.53 3.32 6.53 7.76 0 1.68-.37 3.21-1.05 4.46a7.74 7.74 0 0 0 2.8-5.9c0-4.35-3.7-7.88-8.28-7.88-6.3 0-11.43 4.88-11.43 10.87 0 .53.05 1.06.12 1.57a11.42 11.42 0 0 0 11.31 9.08c4.85 0 8.75-2.75 10.57-6.83a13.05 13.05 0 0 1-10.57 5.28z"/><path transform="translate(-171 -57)" id="5295k" d="M241.5 63.04a1.86 1.86 0 0 1-1.87-1.83c0-1 .85-1.83 1.88-1.83 1.02 0 1.87.82 1.87 1.83 0 1-.85 1.83-1.88 1.83zm0-5.26a3.46 3.46 0 0 0-3.5 3.43c0 1.9 1.56 3.42 3.5 3.42s3.5-1.53 3.5-3.42c0-1.9-1.56-3.43-3.5-3.43z"/><path transform="translate(-171 -57)" id="5295l" d="M266 61.85v-1.13h-12V79.3h1.33v-8.6h9.34v-1.14h-9.34v-7.7z"/><path transform="translate(-171 -57)" id="5295m" d="M275.38 78.17V60.72H274V79.3h12v-1.13z"/><path transform="translate(-171 -57)" id="5295n" d="M327 60.72h-15v1.13h6.8V79.3h1.4V61.85h6.8z"/><path transform="translate(-171 -57)" id="5295o" d="M294.68 72.05l4.32-9.77 4.32 9.77zm11.84 7.25H308l-8.32-18.58h-1.38L290 79.3h1.49l2.7-6.12h9.63z"/></symbol></svg>